<?xml version="1.0" standalone="no"?>
<!DOCTYPE svg PUBLIC "-//W3C//DTD SVG 20010904//EN"
 "http://www.w3.org/TR/2001/REC-SVG-20010904/DTD/svg10.dtd">
<svg version="1.0" xmlns="http://www.w3.org/2000/svg"
 width="16.000000pt" height="16.000000pt" viewBox="0 0 16.000000 16.000000"
 preserveAspectRatio="xMidYMid meet">

<g transform="translate(0.000000,16.000000) scale(0.100000,-0.100000)"
fill="#000000" stroke="none">
<path d="M44 148 c-22 -10 -44 -47 -44 -73 0 -8 10 -24 23 -37 12 -13 16 -17
9 -8 -19 25 -14 68 9 91 17 17 29 20 63 16 39 -5 40 -5 16 8 -29 17 -47 17
-76 3z"/>
<path d="M56 104 c-9 -8 -15 -23 -15 -32 1 -14 2 -14 6 1 3 10 19 25 36 32 26
12 28 14 10 15 -12 0 -29 -7 -37 -16z"/>
<path d="M88 73 c6 -2 9 -10 6 -15 -4 -7 -2 -8 5 -4 13 9 5 26 -12 25 -9 0 -8
-2 1 -6z"/>
</g>
</svg>
